<svg width="247" height="243" viewBox="0 0 247 243" fill="none" xmlns="http://www.w3.org/2000/svg">
<ellipse cx="123.5" cy="121.5" rx="123.5" ry="121.5" fill="#201F1E"/>
<path d="M54.952 121.972C55.264 121.972 55.504 122.116 55.672 122.404C55.864 122.692 55.96 123.088 55.96 123.592C55.96 124.552 55.732 125.296 55.276 125.824C54.244 127.096 53.128 128.14 51.928 128.956C50.752 129.772 49.408 130.18 47.896 130.18C46.624 130.18 45.592 129.724 44.8 128.812C43.432 129.7 42.004 130.156 40.516 130.18C40.204 134.812 39.496 138.676 38.392 141.772C37.288 144.892 35.668 146.452 33.532 146.452C32.236 146.452 31.276 145.984 30.652 145.048C30.028 144.112 29.716 142.816 29.716 141.16C29.716 138.808 30.256 136.06 31.336 132.916C32.416 129.796 34.084 126.352 36.34 122.584C36.34 119.08 36.316 116.644 36.268 115.276C36.244 114.58 36.52 114.028 37.096 113.62C37.672 113.212 38.392 113.008 39.256 113.008C39.76 113.008 40.12 113.116 40.336 113.332C40.576 113.524 40.708 113.92 40.732 114.52C40.732 115.12 40.744 115.564 40.768 115.852C41.536 114.892 42.292 114.208 43.036 113.8C43.78 113.368 44.572 113.152 45.412 113.152C46.756 113.152 47.848 113.692 48.688 114.772C49.552 115.852 49.984 117.268 49.984 119.02C49.984 120.292 49.78 121.528 49.372 122.728C48.964 123.928 48.4 125.02 47.68 126.004C48.184 126.148 48.604 126.22 48.94 126.22C49.732 126.22 50.488 125.932 51.208 125.356C51.928 124.78 52.852 123.82 53.98 122.476C54.268 122.14 54.592 121.972 54.952 121.972ZM40.696 126.724C41.56 126.532 42.352 126.064 43.072 125.32C43.816 124.552 44.404 123.616 44.836 122.512C45.268 121.384 45.484 120.208 45.484 118.984C45.484 118.264 45.34 117.724 45.052 117.364C44.764 116.98 44.38 116.788 43.9 116.788C43.036 116.788 41.992 117.7 40.768 119.524C40.744 120.58 40.732 122.128 40.732 124.168C40.732 125.272 40.72 126.124 40.696 126.724ZM33.82 142.924C34.468 142.924 35.008 141.508 35.44 138.676C35.872 135.868 36.148 132.364 36.268 128.164C35.236 130.564 34.42 132.856 33.82 135.04C33.22 137.224 32.92 139.06 32.92 140.548C32.92 141.316 33.016 141.904 33.208 142.312C33.376 142.72 33.58 142.924 33.82 142.924ZM55.616 130.18C54.704 130.18 54.056 129.7 53.672 128.74C53.312 127.78 53.132 126.244 53.132 124.132C53.132 121.012 53.576 118.048 54.464 115.24C54.68 114.544 55.028 114.04 55.508 113.728C56.012 113.392 56.708 113.224 57.596 113.224C58.076 113.224 58.412 113.284 58.604 113.404C58.796 113.524 58.892 113.752 58.892 114.088C58.892 114.472 58.712 115.336 58.352 116.68C58.112 117.64 57.92 118.48 57.776 119.2C57.632 119.92 57.512 120.808 57.416 121.864C58.208 119.8 59.096 118.12 60.08 116.824C61.064 115.528 62.024 114.604 62.96 114.052C63.92 113.5 64.796 113.224 65.588 113.224C67.148 113.224 67.928 114.004 67.928 115.564C67.928 115.876 67.82 116.632 67.604 117.832C67.412 118.792 67.316 119.392 67.316 119.632C67.316 120.472 67.616 120.892 68.216 120.892C68.888 120.892 69.752 120.364 70.808 119.308C71.12 118.996 71.444 118.84 71.78 118.84C72.092 118.84 72.332 118.984 72.5 119.272C72.692 119.536 72.788 119.896 72.788 120.352C72.788 121.24 72.548 121.936 72.068 122.44C71.396 123.136 70.604 123.736 69.692 124.24C68.804 124.72 67.856 124.96 66.848 124.96C65.576 124.96 64.604 124.636 63.932 123.988C63.284 123.34 62.96 122.464 62.96 121.36C62.96 121 62.996 120.64 63.068 120.28C63.116 119.8 63.14 119.476 63.14 119.308C63.14 118.924 63.008 118.732 62.744 118.732C62.384 118.732 61.904 119.14 61.304 119.956C60.728 120.748 60.152 121.804 59.576 123.124C59 124.444 58.532 125.836 58.172 127.3C57.908 128.428 57.596 129.196 57.236 129.604C56.9 129.988 56.36 130.18 55.616 130.18ZM87.8028 118.948C88.1148 118.948 88.3548 119.104 88.5228 119.416C88.6908 119.728 88.7748 120.124 88.7748 120.604C88.7748 121.756 88.4268 122.44 87.7308 122.656C86.2908 123.16 84.7068 123.448 82.9788 123.52C82.5228 125.536 81.6228 127.156 80.2788 128.38C78.9348 129.58 77.4108 130.18 75.7068 130.18C74.2668 130.18 73.0308 129.832 71.9988 129.136C70.9908 128.44 70.2228 127.516 69.6948 126.364C69.1668 125.212 68.9028 123.964 68.9028 122.62C68.9028 120.796 69.2508 119.176 69.9468 117.76C70.6428 116.32 71.6028 115.204 72.8268 114.412C74.0508 113.596 75.4068 113.188 76.8948 113.188C78.7188 113.188 80.1828 113.824 81.2868 115.096C82.4148 116.344 83.0748 117.892 83.2668 119.74C84.3948 119.668 85.7388 119.428 87.2988 119.02C87.4908 118.972 87.6588 118.948 87.8028 118.948ZM75.9948 126.364C76.7628 126.364 77.4228 126.052 77.9748 125.428C78.5508 124.804 78.9348 123.904 79.1268 122.728C78.3828 122.224 77.8068 121.564 77.3988 120.748C77.0148 119.932 76.8228 119.068 76.8228 118.156C76.8228 117.772 76.8588 117.388 76.9308 117.004H76.7508C75.7908 117.004 74.9868 117.472 74.3388 118.408C73.7148 119.32 73.4028 120.616 73.4028 122.296C73.4028 123.616 73.6548 124.624 74.1588 125.32C74.6868 126.016 75.2988 126.364 75.9948 126.364ZM104.117 122.044C104.429 122.044 104.669 122.2 104.837 122.512C105.029 122.8 105.125 123.172 105.125 123.628C105.125 124.18 105.041 124.612 104.873 124.924C104.705 125.236 104.441 125.512 104.081 125.752C102.017 127.144 100.505 128.176 99.545 128.848L97.241 130.396C96.329 135.364 95.129 139.264 93.641 142.096C92.177 144.952 90.305 146.38 88.025 146.38C86.801 146.38 85.805 145.996 85.037 145.228C84.269 144.484 83.885 143.5 83.885 142.276C83.885 140.572 84.557 138.736 85.901 136.768C87.245 134.824 89.765 132.424 93.461 129.568L93.677 128.164C93.269 128.812 92.729 129.316 92.057 129.676C91.409 130.012 90.761 130.18 90.113 130.18C88.625 130.18 87.437 129.64 86.549 128.56C85.661 127.48 85.217 126.064 85.217 124.312C85.217 122.392 85.661 120.58 86.549 118.876C87.437 117.148 88.613 115.768 90.077 114.736C91.565 113.68 93.137 113.152 94.793 113.152C95.321 113.152 95.669 113.26 95.837 113.476C96.029 113.668 96.185 114.028 96.305 114.556C96.761 114.46 97.289 114.412 97.889 114.412C98.489 114.412 98.909 114.508 99.149 114.7C99.413 114.868 99.545 115.216 99.545 115.744C99.545 116.032 99.533 116.26 99.509 116.428C99.413 117.172 99.113 119.056 98.609 122.08C98.513 122.656 98.405 123.292 98.285 123.988C98.189 124.66 98.081 125.38 97.961 126.148C99.809 124.708 101.585 123.436 103.289 122.332C103.601 122.14 103.877 122.044 104.117 122.044ZM91.409 126.544C91.961 126.544 92.489 126.208 92.993 125.536C93.497 124.864 93.857 123.904 94.073 122.656L95.225 116.5C94.241 116.524 93.329 116.908 92.489 117.652C91.649 118.372 90.977 119.332 90.473 120.532C89.969 121.732 89.717 123.004 89.717 124.348C89.717 125.092 89.861 125.644 90.149 126.004C90.461 126.364 90.881 126.544 91.409 126.544ZM88.421 142.888C89.021 142.888 89.693 142.168 90.437 140.728C91.205 139.288 91.937 136.996 92.633 133.852C90.785 135.436 89.453 136.864 88.637 138.136C87.821 139.408 87.413 140.524 87.413 141.484C87.413 141.892 87.485 142.228 87.629 142.492C87.797 142.756 88.061 142.888 88.421 142.888ZM105.081 130.18C104.169 130.18 103.521 129.7 103.137 128.74C102.777 127.78 102.597 126.244 102.597 124.132C102.597 121.012 103.041 118.048 103.929 115.24C104.145 114.544 104.493 114.04 104.973 113.728C105.477 113.392 106.173 113.224 107.061 113.224C107.541 113.224 107.877 113.284 108.069 113.404C108.261 113.524 108.357 113.752 108.357 114.088C108.357 114.472 108.177 115.336 107.817 116.68C107.577 117.64 107.385 118.48 107.241 119.2C107.097 119.896 106.977 120.772 106.881 121.828C107.529 119.956 108.297 118.372 109.185 117.076C110.097 115.78 111.021 114.82 111.957 114.196C112.917 113.548 113.817 113.224 114.657 113.224C115.497 113.224 116.085 113.416 116.421 113.8C116.781 114.184 116.961 114.772 116.961 115.564C116.961 116.332 116.733 117.724 116.277 119.74C116.085 120.604 115.953 121.252 115.881 121.684C117.081 118.732 118.413 116.584 119.877 115.24C121.341 113.896 122.709 113.224 123.981 113.224C125.541 113.224 126.321 114.004 126.321 115.564C126.321 116.5 126.057 118.192 125.529 120.64C125.073 122.728 124.845 124.108 124.845 124.78C124.845 125.74 125.193 126.22 125.889 126.22C126.369 126.22 126.933 125.932 127.581 125.356C128.253 124.756 129.141 123.796 130.245 122.476C130.533 122.14 130.857 121.972 131.217 121.972C131.529 121.972 131.769 122.116 131.937 122.404C132.129 122.692 132.225 123.088 132.225 123.592C132.225 124.552 131.997 125.296 131.541 125.824C130.509 127.096 129.393 128.14 128.193 128.956C127.017 129.772 125.673 130.18 124.161 130.18C122.937 130.18 122.013 129.832 121.389 129.136C120.765 128.416 120.453 127.384 120.453 126.04C120.453 125.368 120.621 124.168 120.957 122.44C121.269 120.928 121.425 119.884 121.425 119.308C121.425 118.924 121.293 118.732 121.029 118.732C120.717 118.732 120.273 119.14 119.697 119.956C119.121 120.748 118.545 121.804 117.969 123.124C117.393 124.444 116.925 125.836 116.565 127.3C116.301 128.452 115.989 129.22 115.629 129.604C115.293 129.988 114.741 130.18 113.973 130.18C113.181 130.18 112.581 129.808 112.173 129.064C111.789 128.296 111.597 127.372 111.597 126.292C111.597 125.38 111.717 124.06 111.957 122.332C112.149 120.796 112.245 119.788 112.245 119.308C112.245 118.924 112.113 118.732 111.849 118.732C111.489 118.732 111.033 119.164 110.481 120.028C109.929 120.892 109.389 121.996 108.861 123.34C108.357 124.684 107.949 126.004 107.637 127.3C107.373 128.428 107.061 129.196 106.701 129.604C106.365 129.988 105.825 130.18 105.081 130.18ZM133.742 130.18C132.254 130.18 131.066 129.64 130.178 128.56C129.29 127.48 128.846 126.064 128.846 124.312C128.846 122.392 129.29 120.58 130.178 118.876C131.066 117.148 132.242 115.768 133.706 114.736C135.194 113.68 136.766 113.152 138.422 113.152C138.95 113.152 139.298 113.26 139.466 113.476C139.658 113.668 139.814 114.028 139.934 114.556C140.438 114.46 140.966 114.412 141.518 114.412C142.694 114.412 143.282 114.832 143.282 115.672C143.282 116.176 143.102 117.376 142.742 119.272C142.19 122.032 141.914 123.952 141.914 125.032C141.914 125.392 141.998 125.68 142.166 125.896C142.358 126.112 142.598 126.22 142.886 126.22C143.342 126.22 143.894 125.932 144.542 125.356C145.19 124.756 146.066 123.796 147.17 122.476C147.458 122.14 147.782 121.972 148.142 121.972C148.454 121.972 148.694 122.116 148.862 122.404C149.054 122.692 149.15 123.088 149.15 123.592C149.15 124.552 148.922 125.296 148.466 125.824C147.482 127.048 146.438 128.08 145.334 128.92C144.23 129.76 143.162 130.18 142.13 130.18C141.338 130.18 140.606 129.916 139.934 129.388C139.286 128.836 138.794 128.092 138.458 127.156C137.21 129.172 135.638 130.18 133.742 130.18ZM135.038 126.544C135.566 126.544 136.07 126.232 136.55 125.608C137.03 124.984 137.378 124.156 137.594 123.124L138.926 116.5C137.918 116.524 136.982 116.908 136.118 117.652C135.278 118.372 134.606 119.332 134.102 120.532C133.598 121.732 133.346 123.004 133.346 124.348C133.346 125.092 133.49 125.644 133.778 126.004C134.09 126.364 134.51 126.544 135.038 126.544ZM162.28 121.972C162.592 121.972 162.832 122.116 163 122.404C163.192 122.692 163.288 123.088 163.288 123.592C163.288 124.552 163.06 125.296 162.604 125.824C161.572 127.096 160.444 128.14 159.22 128.956C157.996 129.772 156.592 130.18 155.008 130.18C150.112 130.18 147.664 126.736 147.664 119.848C147.664 118.792 147.7 117.724 147.772 116.644H146.368C145.648 116.644 145.156 116.512 144.892 116.248C144.652 115.984 144.532 115.564 144.532 114.988C144.532 113.644 145.072 112.972 146.152 112.972H148.204C148.612 110.332 149.236 107.92 150.076 105.736C150.916 103.552 151.924 101.812 153.1 100.516C154.3 99.22 155.584 98.572 156.952 98.572C157.96 98.572 158.752 99.016 159.328 99.904C159.904 100.792 160.192 101.908 160.192 103.252C160.192 106.972 158.632 110.212 155.512 112.972H159.544C159.928 112.972 160.204 113.056 160.372 113.224C160.54 113.392 160.624 113.704 160.624 114.16C160.624 115.816 159.268 116.644 156.556 116.644H152.164C152.116 117.844 152.092 118.78 152.092 119.452C152.092 121.948 152.38 123.7 152.956 124.708C153.556 125.716 154.492 126.22 155.764 126.22C156.796 126.22 157.708 125.908 158.5 125.284C159.292 124.66 160.228 123.724 161.308 122.476C161.596 122.14 161.92 121.972 162.28 121.972ZM155.98 102.028C155.62 102.028 155.212 102.484 154.756 103.396C154.324 104.284 153.904 105.532 153.496 107.14C153.112 108.724 152.788 110.488 152.524 112.432C153.94 111.208 154.996 109.84 155.692 108.328C156.412 106.792 156.772 105.4 156.772 104.152C156.772 102.736 156.508 102.028 155.98 102.028ZM165.073 110.848C164.065 110.848 163.309 110.62 162.805 110.164C162.301 109.684 162.049 109.024 162.049 108.184C162.049 107.344 162.373 106.648 163.021 106.096C163.693 105.52 164.521 105.232 165.505 105.232C166.393 105.232 167.113 105.448 167.665 105.88C168.217 106.312 168.493 106.924 168.493 107.716C168.493 108.676 168.181 109.444 167.557 110.02C166.933 110.572 166.105 110.848 165.073 110.848ZM164.785 130.18C163.225 130.18 162.085 129.628 161.365 128.524C160.669 127.42 160.321 125.956 160.321 124.132C160.321 123.052 160.453 121.672 160.717 119.992C161.005 118.288 161.365 116.704 161.797 115.24C162.013 114.472 162.301 113.944 162.661 113.656C163.021 113.368 163.597 113.224 164.389 113.224C165.613 113.224 166.225 113.632 166.225 114.448C166.225 115.048 165.997 116.44 165.541 118.624C164.965 121.264 164.677 123.052 164.677 123.988C164.677 124.708 164.773 125.26 164.965 125.644C165.157 126.028 165.481 126.22 165.937 126.22C166.369 126.22 166.909 125.92 167.557 125.32C168.205 124.72 169.069 123.772 170.149 122.476C170.437 122.14 170.761 121.972 171.121 121.972C171.433 121.972 171.673 122.116 171.841 122.404C172.033 122.692 172.129 123.088 172.129 123.592C172.129 124.552 171.901 125.296 171.445 125.824C169.069 128.728 166.849 130.18 164.785 130.18ZM175.912 130.18C173.632 130.18 171.844 129.52 170.548 128.2C169.276 126.856 168.64 125.092 168.64 122.908C168.64 120.964 169.024 119.26 169.792 117.796C170.56 116.332 171.556 115.204 172.78 114.412C174.004 113.62 175.288 113.224 176.632 113.224C177.952 113.224 178.972 113.62 179.692 114.412C180.436 115.18 180.808 116.176 180.808 117.4C180.808 118.408 180.58 119.26 180.124 119.956C179.692 120.652 179.116 121 178.396 121C177.94 121 177.568 120.892 177.28 120.676C177.016 120.46 176.884 120.16 176.884 119.776C176.884 119.608 176.908 119.416 176.956 119.2C177.004 118.984 177.04 118.828 177.064 118.732C177.184 118.372 177.244 118.036 177.244 117.724C177.244 117.412 177.16 117.172 176.992 117.004C176.848 116.836 176.632 116.752 176.344 116.752C175.792 116.752 175.276 117.004 174.796 117.508C174.316 117.988 173.932 118.648 173.644 119.488C173.356 120.328 173.212 121.252 173.212 122.26C173.212 123.628 173.488 124.672 174.04 125.392C174.616 126.088 175.42 126.436 176.452 126.436C177.268 126.436 178.012 126.196 178.684 125.716C179.38 125.236 180.064 124.528 180.736 123.592C181.024 123.232 181.348 123.052 181.708 123.052C182.02 123.052 182.26 123.196 182.428 123.484C182.62 123.772 182.716 124.168 182.716 124.672C182.716 125.536 182.512 126.28 182.104 126.904C181.456 127.912 180.604 128.716 179.548 129.316C178.492 129.892 177.28 130.18 175.912 130.18ZM192.591 108.976C195.063 108.976 196.947 109.756 198.243 111.316C199.563 112.852 200.223 114.988 200.223 117.724C200.223 120.172 199.803 122.344 198.963 124.24C198.147 126.112 196.971 127.576 195.435 128.632C193.923 129.664 192.147 130.18 190.107 130.18C188.259 130.18 186.735 129.76 185.535 128.92C184.359 128.056 183.687 126.928 183.519 125.536L183.483 125.14C183.483 124.516 183.675 124.036 184.059 123.7C184.467 123.34 185.031 123.16 185.751 123.16C186.279 123.16 186.699 123.304 187.011 123.592C187.347 123.856 187.635 124.324 187.875 124.996C188.067 125.5 188.379 125.896 188.811 126.184C189.267 126.472 189.831 126.616 190.503 126.616C191.895 126.616 193.023 126.076 193.887 124.996C194.775 123.892 195.327 122.26 195.543 120.1C194.919 120.82 194.211 121.336 193.419 121.648C192.627 121.936 191.751 122.08 190.791 122.08C189.591 122.08 188.511 121.828 187.551 121.324C186.615 120.82 185.883 120.124 185.355 119.236C184.827 118.324 184.563 117.316 184.563 116.212C184.563 114.844 184.875 113.62 185.499 112.54C186.147 111.436 187.071 110.572 188.271 109.948C189.495 109.3 190.935 108.976 192.591 108.976ZM191.871 118.48C192.903 118.48 193.707 118.192 194.283 117.616C194.859 117.04 195.147 116.272 195.147 115.312C195.147 114.448 194.907 113.764 194.427 113.26C193.947 112.756 193.275 112.504 192.411 112.504C191.451 112.504 190.671 112.816 190.071 113.44C189.495 114.04 189.207 114.832 189.207 115.816C189.207 116.632 189.447 117.28 189.927 117.76C190.407 118.24 191.055 118.48 191.871 118.48ZM212.068 108.976C214.54 108.976 216.424 109.756 217.72 111.316C219.04 112.852 219.7 114.988 219.7 117.724C219.7 120.172 219.28 122.344 218.44 124.24C217.624 126.112 216.448 127.576 214.912 128.632C213.4 129.664 211.624 130.18 209.584 130.18C207.736 130.18 206.212 129.76 205.012 128.92C203.836 128.056 203.164 126.928 202.996 125.536L202.96 125.14C202.96 124.516 203.152 124.036 203.536 123.7C203.944 123.34 204.508 123.16 205.228 123.16C205.756 123.16 206.176 123.304 206.488 123.592C206.824 123.856 207.112 124.324 207.352 124.996C207.544 125.5 207.856 125.896 208.288 126.184C208.744 126.472 209.308 126.616 209.98 126.616C211.372 126.616 212.5 126.076 213.364 124.996C214.252 123.892 214.804 122.26 215.02 120.1C214.396 120.82 213.688 121.336 212.896 121.648C212.104 121.936 211.228 122.08 210.268 122.08C209.068 122.08 207.988 121.828 207.028 121.324C206.092 120.82 205.36 120.124 204.832 119.236C204.304 118.324 204.04 117.316 204.04 116.212C204.04 114.844 204.352 113.62 204.976 112.54C205.624 111.436 206.548 110.572 207.748 109.948C208.972 109.3 210.412 108.976 212.068 108.976ZM211.348 118.48C212.38 118.48 213.184 118.192 213.76 117.616C214.336 117.04 214.624 116.272 214.624 115.312C214.624 114.448 214.384 113.764 213.904 113.26C213.424 112.756 212.752 112.504 211.888 112.504C210.928 112.504 210.148 112.816 209.548 113.44C208.972 114.04 208.684 114.832 208.684 115.816C208.684 116.632 208.924 117.28 209.404 117.76C209.884 118.24 210.532 118.48 211.348 118.48Z" fill="#F8FAF7"/>
</svg>
